<svg xmlns="http://www.w3.org/2000/svg" class="strongbox-logo" viewBox="0 0 56.128 14.195"><g class="strongbox-text-color"><path d="M2.94 9.659c0 .351.012.68.112.852.102.175.256.298.554.298v.276a.885.885 0 0 1-.693-.327c-.154-.208-.223-.456-.223-1.146V7.871c0-.706-.2-1.191-.59-1.205l.003-.183c.207-.007.358-.2.45-.37.091-.168.137-.423.137-.764V3.54c0-1.03.481-1.54.916-1.54v.277c-.259 0-.364.164-.49.354-.164.285-.177.551-.177.91v1.575c0 .448-.037.783-.112 1.003-.074.22-.195.367-.361.44v.04c.164.07.284.214.359.435.076.217.114.537.114.96zM53.093 7.999c0-.424.038-.744.112-.961.076-.22.197-.366.361-.434v-.042c-.164-.069-.285-.213-.36-.434-.075-.22-.113-.556-.113-1.008V3.544c0-.355-.03-.662-.114-.853-.113-.233-.286-.312-.552-.312V2a.85.85 0 0 1 .679.371c.158.266.236.657.236 1.173v1.809c0 .344.046.601.138.77.093.165.243.343.448.35v.2c-.39.014-.586.496-.586 1.202v1.741c0 .534-.058.813-.198 1.076-.109.19-.442.397-.717.393v-.276c.24-.007.437-.09.539-.266.103-.172.127-.525.127-.88z" fill="#2684bd"/><g><path d="M9.013 3.902q-.702-.826-1.983-.826-1.057 0-1.545.43-.477.418-.477 1.136 0 .365.122.612.121.236.376.407.264.172.66.29.397.118.956.247.58.128 1.047.29.478.15.803.385.336.236.508.58.183.343.183.847t-.193.88q-.183.375-.528.632-.336.247-.814.376-.467.128-1.047.128-1.687 0-2.856-1.137l.274-.44q.458.505 1.118.805.661.29 1.485.29.945 0 1.474-.365.538-.365.538-1.105 0-.375-.142-.633-.142-.268-.427-.46-.274-.194-.701-.333-.427-.14-.997-.268-.579-.13-1.026-.269-.437-.15-.742-.364-.295-.226-.448-.537-.152-.31-.152-.783 0-.514.183-.911.193-.397.529-.665.335-.28.803-.419.467-.14 1.036-.14.702 0 1.25.226.55.215.997.665zM13.116 9.984q-.041.021-.143.086-.091.053-.244.107-.142.054-.325.097-.183.042-.396.042-.214 0-.407-.064-.183-.064-.325-.193-.143-.129-.224-.311-.081-.182-.081-.43V5.115h-.742v-.44h.742V2.765h.508v1.91h1.23v.44h-1.23V9.19q0 .311.203.472.204.15.458.15.315 0 .539-.107.233-.118.284-.15zM16.514 5.157q-.711.022-1.25.45-.529.419-.742 1.16v3.485h-.509V4.674h.488v1.373q.275-.59.722-.954.458-.376.976-.43.102-.01.183-.01h.132zM19.446 10.36q-.56 0-1.037-.226-.468-.236-.813-.633-.346-.397-.539-.922-.193-.526-.193-1.105 0-.59.193-1.116.203-.525.549-.922.346-.397.813-.622.478-.236 1.027-.236.549 0 1.017.236.467.225.813.622.356.397.549.922.203.526.203 1.116 0 .58-.203 1.105-.193.525-.539.922-.346.397-.823.633-.468.225-1.017.225zm-2.074-2.865q0 .494.163.934.163.429.437.75.285.322.66.515.377.183.804.183.427 0 .803-.183.376-.193.66-.525.285-.333.448-.762.163-.44.163-.944 0-.493-.163-.922-.163-.44-.447-.762-.285-.332-.661-.525-.366-.193-.793-.193-.427 0-.803.193-.376.193-.66.525-.275.333-.448.783-.163.44-.163.933zM27.566 10.252h-.508v-3.11q0-1.084-.295-1.577-.284-.494-.915-.494-.335 0-.67.13-.326.128-.61.364-.285.236-.499.558-.213.31-.315.675v3.454h-.508V4.674h.478v1.33q.162-.321.396-.579.244-.268.539-.45.305-.193.64-.29.336-.107.692-.107.864 0 1.22.644.355.632.355 1.823zM31.238 10.338q-.55 0-1.007-.236-.457-.247-.793-.644-.325-.407-.518-.922-.183-.515-.183-1.062 0-.568.173-1.094.183-.526.508-.923.325-.407.773-.643.457-.236 1.006-.236.691 0 1.2.386.518.375.874.923V4.674h.468v5.685q0 .569-.204.998-.203.429-.549.708-.335.29-.793.429-.447.15-.945.15-.458 0-.823-.097-.366-.085-.651-.257-.275-.16-.498-.408-.214-.236-.376-.525l.345-.247q.315.569.854.826.539.268 1.149.268.407 0 .762-.118.366-.118.63-.354.275-.225.428-.568.162-.343.162-.805V9.137q-.325.547-.864.88-.539.32-1.128.32zm.122-.461q.335 0 .65-.13.326-.138.58-.353.264-.215.427-.483.173-.268.213-.536V6.541q-.122-.322-.325-.59-.203-.279-.468-.472-.254-.193-.559-.3-.295-.118-.6-.118-.477 0-.853.214-.377.215-.64.558-.255.343-.397.783-.133.429-.133.869 0 .482.163.911.163.43.447.762.285.333.671.526.387.193.824.193zM37.788 10.36q-.62 0-1.16-.344-.538-.343-.843-.88v1.116h-.467v-7.83h.508v3.465q.376-.58.884-.944.519-.365 1.19-.365.559 0 1.006.257.457.247.762.665.316.408.478.934.173.514.173 1.05 0 .58-.193 1.106-.193.514-.539.911-.335.386-.803.622-.457.236-.996.236zm-.102-.483q.468 0 .854-.204.386-.204.66-.536.285-.344.438-.773.163-.429.163-.88 0-.471-.153-.9-.142-.44-.417-.773-.264-.343-.64-.547-.366-.203-.813-.203-.336 0-.63.128-.295.118-.55.322-.244.204-.447.472-.193.268-.325.558v1.845q.03.31.223.59.194.268.458.472.274.193.59.31.315.119.59.119zM43.748 10.36q-.559 0-1.037-.226-.467-.236-.813-.633-.346-.397-.539-.922-.193-.526-.193-1.105 0-.59.193-1.116.204-.525.55-.922.345-.397.812-.622.478-.236 1.027-.236.55 0 1.017.236.467.225.813.622.356.397.549.922.203.526.203 1.116 0 .58-.203 1.105-.193.525-.539.922-.346.397-.823.633-.468.225-1.017.225zm-2.074-2.865q0 .494.163.934.163.429.437.75.285.322.66.515.377.183.804.183.427 0 .803-.183.376-.193.66-.525.285-.333.448-.762.163-.44.163-.944 0-.493-.163-.922-.163-.44-.447-.762-.285-.332-.661-.525-.366-.193-.793-.193-.427 0-.803.193-.376.193-.66.525-.275.333-.448.783-.163.44-.163.933zM47.269 4.674l1.707 2.307.082.15.081-.15 1.698-2.307h.569l-2.053 2.8 2.043 2.778h-.56L49.14 7.957l-.081-.14-.082.14-1.697 2.295h-.56l2.044-2.778-2.054-2.8z"/></g></g></svg>